<svg xmlns="http://www.w3.org/2000/svg" width="28" height="28" viewBox="0 0 28 28">
    <g fill="none" fill-rule="evenodd">
        <g fill="#391B1B">
            <g>
                <g>
                    <g>
                        <g>
                            <path d="M13.478.07c7.444 0 13.478 4.77 13.478 10.655 0 5.884-6.034 10.655-13.478 10.655-.855 0-1.691-.063-2.502-.184l-2.236 1.52-.419.285c-1.249.85-2.401 1.632-2.532 1.719-.295.197-.746.207-.564-.526.148-.59.887-3.351 1.169-4.404C2.557 17.912 0 14.555 0 10.725 0 4.84 6.034.07 13.478.07zm5.791 7.422c-.402 0-.727.326-.727.728v5.357c0 .403.325.728.727.728.402 0 .727-.325.727-.728v-1.653l.416-.414 1.931 2.535c.216.287.624.346.911.13.287-.216.345-.624.13-.912l-2.043-2.682 1.845-1.846c.25-.25.25-.656 0-.905-.25-.25-.655-.25-.905 0l-2.285 2.284V8.22c0-.402-.325-.728-.727-.728zm-8.465 0c-.48 0-.876.293-.955.677-.013.028-.027.057-.038.088l-1.931 5.18c-.12.34.06.712.398.831.34.12.712-.06.831-.398l.334-.955h2.689l.334.955c.12.339.491.518.83.398.34-.119.518-.49.4-.83L11.73 8.064l-.007-.006c-.126-.327-.488-.566-.92-.566zm-2.75.095H4.113c-.37 0-.67.3-.67.67 0 .37.3.67.67.67h1.281v4.722c0 .172.07.34.193.463.12.121.289.191.461.191h.143c.172 0 .34-.07.46-.191.123-.122.193-.29.193-.463V8.928h1.21c.371 0 .671-.3.671-.671 0-.37-.3-.67-.67-.67zm6.913-.095c-.402 0-.728.326-.728.728v5.198c0 .04.006.078.012.116-.007.038-.012.077-.012.116 0 .337.272.61.609.61h2.678c.337 0 .609-.273.609-.61 0-.335-.272-.608-.609-.608h-1.832V8.22c0-.402-.326-.728-.727-.728zM10.773 9.12l.03.003.902 2.575H9.87l.903-2.578z" transform="translate(-1120 -563) translate(766 552) translate(342) translate(12 10.5) translate(0 2.964)"/>
                        </g>
                    </g>
                </g>
            </g>
        </g>
    </g>
</svg>
